PathFileType	4	(X/Y/Z)	Apose_0-50.trc
DataRate	CameraRate	NumFrames	NumMarkers	Units	OrigDataRate	OrigDataStartFrame	OrigNumFrames
30	30	5	22	m	30	0	50
Frame#	Time	Hip			RHip			RKnee			RAnkle			RBigToe			RSmallToe			RHeel			LHip			LKnee			LAnkle			LBigToe			LSmallToe			LHeel			Neck			Head			Nose			RShoulder			RElbow			RWrist			LShoulder			LElbow			LWrist		
		X1	Y1	Z1	X2	Y2	Z2	X3	Y3	Z3	X4	Y4	Z4	X5	Y5	Z5	X6	Y6	Z6	X7	Y7	Z7	X8	Y8	Z8	X9	Y9	Z9	X10	Y10	Z10	X11	Y11	Z11	X12	Y12	Z12	X13	Y13	Z13	X14	Y14	Z14	X15	Y15	Z15	X16	Y16	Z16	X17	Y17	Z17	X18	Y18	Z18	X19	Y19	Z19	X20	Y20	Z20	X21	Y21	Z21	X22	Y22	Z22
1	0.03333333333333333	0.04869665585632548	0.922349913330288	0.3708326416598914	0.045005815434005746	0.8824163880488329	0.47990147003033323	0.012589574868835184	0.5107934031705114	0.49632453004386573	-0.005123156425791718	0.1138265962842984	0.516688372177548	0.1889387161728557	0.048813687451609106	0.5643774653877981	0.14948625706845164	0.024885057840477367	0.6134345833537783	-0.04540439057295017	0.043955865528226126	0.49635655020280567	0.04916542757610123	0.881953304918162	0.26437930125405074	0.025787749400621063	0.5094329837691899	0.2305486551889022	0.0013249681979569815	0.12364643002117363	0.20701845585539436	0.2119807927688331	0.048946442873384725	0.18584738012419907	0.1755993229313882	0.029561987984303813	0.13981223481630067	-0.03820557641848898	0.04675881940417259	0.2199625650629254	0.0454476340159263	1.583457522249274	0.3569688906669599	0.23688733468578207	1.821841908514494	0.2622797394060717	0.2091220103833021	1.6483984968720258	0.32797437383868794	0.026514451248131427	1.4939855154659294	0.5522233951329203	0.10855910691088287	1.2337837725124103	0.7306353116218438	0.17851231206403267	1.040741141629129	0.8929800142984534	0.0013255496887921397	1.483643896815891	0.1683143645036228	0.025896892116334263	1.2270237853453565	0.010837821254629714	0.08193293481276065	1.0207696719368256	-0.13434896696730841
2	0.06666666666666667	0.0513451077517794	0.9234019523897526	0.3707841130926999	0.044052943485355885	0.8807480245588223	0.4763978989115913	0.015181966103881577	0.5103882522357438	0.4971221151021785	-0.005013466662429988	0.11196441397012694	0.5180991168379875	0.1870743186689618	0.03318391216451652	0.5510705744713464	0.1448207544601973	0.03476106929886274	0.6219252711249783	-0.04245138366540485	0.0378573525674269	0.4992581515512913	0.04612932135191616	0.8815081817270162	0.26083280021255933	0.0244141640027462	0.5084116784459017	0.23236147752659608	0.006756969566931187	0.11662002095973832	0.20873856013976905	0.20830767589928412	0.036213762894455354	0.19363808426004356	0.16245807543790305	0.0355750198536802	0.12543318360335384	-0.04037184650140221	0.042453815608281445	0.21775797875479153	0.043572498866200175	1.581765652958892	0.3574188022160009	0.1666738060911795	1.8086098772825787	0.3375161885905306	0.20990789526659692	1.6385588854944813	0.33315189340547324	0.025163135331602436	1.4903840818676517	0.5512727558327577	0.10478354168889112	1.2333635867275168	0.7262439350845483	0.1711976553616828	1.042641442999508	0.8911213411934461	0.004023693553355163	1.4803418906725743	0.16001575368524754	0.02845557514096494	1.2263807428894717	0.015049931130850661	0.08308340428684552	1.0174754960444587	-0.13690722317157775
3	0.1	0.04158478122910443	0.9240547439550472	0.36786284682485526	0.03260368608077972	0.8841714772678422	0.47319490608568887	0.012563595536977444	0.5078113193303077	0.5008069826622912	-0.0061732273036515725	0.11390327641692108	0.5183542726298879	0.17963307735177086	0.03358917113698618	0.5532325117283661	0.1460334622414666	0.03637614013720883	0.6253073627091595	-0.040481838067199294	0.04060589282658249	0.49717599633177806	0.036144409793355294	0.8808388905782324	0.2551750436539657	0.020043163572668055	0.5095415006198287	0.2300803963982681	0.007457856008454037	0.11520343794285956	0.2084429685201257	0.2200537895644163	0.04852589067443266	0.18701666450912846	0.16366552071185878	0.03765797467818823	0.12493443523395943	-0.036557173559924945	0.0457445098063457	0.217972668223443	0.062105426423612976	1.59881820323396	0.3634336316741298	0.32861195569524004	1.7850957470335984	0.25977456803491805	0.22732403564629	1.5885823686562717	0.32976035640720214	0.023407301791673583	1.493525831780099	0.5453448006184549	0.0904364673223757	1.2350447936497544	0.7252132402643314	0.14822803340634463	1.045365938218415	0.8959955291824622	0.010013354132651493	1.4822745000449926	0.15446618921240518	0.01576671831316691	1.2308415639899948	0.006475675594218673	0.05635994180458601	1.0147615555367455	-0.14667517029607183
4	0.13333333333333333	0.03839211816758444	0.925869515183125	0.364384249493574	0.029145970823388555	0.8860228290561025	0.4702768230479204	0.006832897428711821	0.5066335637555666	0.4996951083281325	-0.003664376345116335	0.11140457146933247	0.5146631598665642	0.1916938060601299	0.033057733528414096	0.5594327159825027	0.1463502703705146	0.031422908028463994	0.6281866682882389	-0.03874023963686586	0.03525112865218269	0.49724566173983353	0.03281451712024103	0.887890848896038	0.2526326735214903	0.016055946060390697	0.5111519977823149	0.2278480545743942	0.0013424032821465137	0.12422066958323771	0.20693482150376752	0.2175970674338447	0.04396530299600875	0.18958446862706904	0.1658553841916215	0.03392026225473189	0.12463562299431982	-0.04407314502292208	0.05918221478235691	0.19966990246539307	0.06838053266762861	1.5972589697694037	0.36818174579550794	0.24736195761661428	1.7627080281812992	0.34316380735752683	0.22715380035114227	1.578197022141576	0.3301614149223604	0.025995027612728865	1.495719115948421	0.5439208035567402	0.08642511968294937	1.2342166888861954	0.7275793260837687	0.13740116592041074	1.0451089356786396	0.8987031527280506	0.01144541946304731	1.4819737089696816	0.15624871979805297	0.012876739408542679	1.2319286610324818	0.005435022119516695	0.049743008331082	1.01724224697443	-0.1475298662816167
5	0.16666666666666666	0.03527700274581984	0.9254918855641436	0.36642117776842964	0.025618069791573276	0.8866128379298268	0.4701853361207523	0.0040018498030077515	0.507586755804287	0.5010085727626978	-0.004966978305342025	0.10937560393165756	0.51554601704832	0.18841433806167174	0.03285245934696231	0.5604341088500855	0.14440466523413614	0.030272153642818347	0.6285390594774578	-0.04982635119141916	0.045569450700223633	0.5057848509601383	0.030300195866826314	0.8892886212845149	0.25366638006032166	0.011612136786404118	0.5109807014072052	0.22976189653749954	0.0018576947810250285	0.12248081829491884	0.20763190531157677	0.21895276834100294	0.04575987612053215	0.1917084465910696	0.16804517892570103	0.03561265331081805	0.12662254747095947	-0.04127383489881744	0.057280294651203	0.1961218353175572	0.05533279779447435	1.5736511552799932	0.3562679847671396	0.3341695811903858	1.7706982073159288	0.2655186484118603	0.23275652758534732	1.5738663487936364	0.3317974096323579	0.025203906020822748	1.4962349127666061	0.5439283041276999	0.06456204431750724	1.2331261072084228	0.724557246146696	0.13552312978075495	1.0468476629227323	0.9015047405821742	0.016155338450907504	1.4837223704849563	0.15361604457657016	0.01261174716551527	1.2323427669519034	0.004415945792651766	0.047132753273406706	1.0137331728220629	-0.14902303063281963
